<svg width="582" height="74" viewBox="0 0 582 74" fill="none" xmlns="http://www.w3.org/2000/svg">
<path d="M23.8 73.2C19.3333 73.2 15.3333 72.1667 11.8 70.1C8.33333 68.0333 5.56667 65.0667 3.5 61.2C1.43333 57.2667 0.4 52.6 0.4 47.2C0.4 41.8 1.43333 37.1667 3.5 33.3C5.56667 29.3667 8.36667 26.3667 11.9 24.3C15.5 22.2333 19.4667 21.2 23.8 21.2C29.9333 21.2 34.8333 22.7333 38.5 25.8C42.1667 28.8667 44.5 32.9667 45.5 38.1H36.9C36.1 35.3667 34.5667 33.2 32.3 31.6C30.0333 29.9333 27.1667 29.1 23.7 29.1C21.1667 29.1 18.7667 29.7667 16.5 31.1C14.2333 32.4333 12.4 34.4333 11 37.1C9.6 39.7667 8.9 43.1333 8.9 47.2C8.9 51.2667 9.6 54.6667 11 57.4C12.4 60.0667 14.2333 62.0667 16.5 63.4C18.7667 64.7333 21.1667 65.4 23.7 65.4C27.3667 65.4 30.2667 64.5667 32.4 62.9C34.6 61.2333 36.1 59.0333 36.9 56.3H45.5C44.2333 61.5667 41.7333 65.7 38 68.7C34.3333 71.7 29.6 73.2 23.8 73.2ZM78.7609 73.2C74.8276 73.2 71.5609 72.5 68.9609 71.1C66.3609 69.7 64.4276 67.8667 63.1609 65.6C61.8943 63.2667 61.2609 60.7333 61.2609 58C61.2609 52.9333 63.0943 49.1 66.7609 46.5C70.4943 43.8333 75.4609 42.5 81.6609 42.5H95.2609V41.5C95.2609 32.8333 91.2943 28.5 83.3609 28.5C80.1609 28.5 77.4609 29.2 75.2609 30.6C73.1276 32 71.7609 34.2 71.1609 37.2H62.5609C62.8943 33.8667 63.9943 31 65.8609 28.6C67.7943 26.2 70.2609 24.3667 73.2609 23.1C76.2609 21.8333 79.6276 21.2 83.3609 21.2C90.4276 21.2 95.5609 23.0667 98.7609 26.8C102.028 30.4667 103.661 35.3667 103.661 41.5V72H96.4609L95.7609 64.3H95.0609C93.5943 66.7 91.6276 68.8 89.1609 70.6C86.7609 72.3333 83.2943 73.2 78.7609 73.2ZM80.2609 65.8C83.4609 65.8 86.1609 65.0333 88.3609 63.5C90.6276 61.9667 92.3276 59.9333 93.4609 57.4C94.6609 54.8667 95.2609 52.1 95.2609 49.1H82.3609C77.8276 49.1 74.6276 49.8667 72.7609 51.4C70.9609 52.9333 70.0609 54.9667 70.0609 57.5C70.0609 60.1 70.9276 62.1333 72.6609 63.6C74.3943 65.0667 76.9276 65.8 80.2609 65.8ZM120.422 72V64.8H137.322V9.7C137.322 8.03333 136.489 7.2 134.822 7.2H122.222V-2.86102e-06H136.822C139.689 -2.86102e-06 141.889 0.766664 143.422 2.3C144.955 3.83333 145.722 6.03333 145.722 8.9V64.8H162.622V72H120.422ZM197.983 72L176.183 22.4H185.783L202.883 62.8L220.083 22.4H229.583L207.683 72H197.983ZM262.244 13.6C260.244 13.6 258.577 12.9333 257.244 11.6C255.91 10.2667 255.244 8.66667 255.244 6.8C255.244 4.86666 255.91 3.26666 257.244 2C258.577 0.666663 260.244 -2.86102e-06 262.244 -2.86102e-06C264.177 -2.86102e-06 265.81 0.666663 267.144 2C268.544 3.26666 269.244 4.86666 269.244 6.8C269.244 8.66667 268.544 10.2667 267.144 11.6C265.81 12.9333 264.177 13.6 262.244 13.6ZM242.844 72V64.8H258.644V32.1C258.644 30.4333 257.81 29.6 256.144 29.6H244.544V22.4H258.144C264.077 22.4 267.044 25.3667 267.044 31.3V64.8H282.844V72H242.844ZM301.605 72V22.4H308.605L309.505 29.9H310.005C311.338 27.5 313.438 25.4667 316.305 23.8C319.171 22.0667 322.471 21.2 326.205 21.2C332.271 21.2 336.805 23 339.805 26.6C342.871 30.2 344.405 35.4 344.405 42.2V72H336.005V43.2C336.005 38.8 335.038 35.3667 333.105 32.9C331.171 30.3667 328.171 29.1 324.105 29.1C320.171 29.1 316.838 30.4667 314.105 33.2C311.371 35.8667 310.005 39.7333 310.005 44.8V72H301.605ZM382.766 72.2C380.699 72.2 378.932 71.5 377.466 70.1C375.999 68.7 375.266 66.9667 375.266 64.9C375.266 62.9 375.999 61.2 377.466 59.8C378.932 58.4 380.699 57.7 382.766 57.7C384.832 57.7 386.599 58.4 388.066 59.8C389.532 61.2 390.266 62.9 390.266 64.9C390.266 66.9667 389.532 68.7 388.066 70.1C386.599 71.5 384.832 72.2 382.766 72.2ZM438.527 73.2C434.593 73.2 431.327 72.5 428.727 71.1C426.127 69.7 424.193 67.8667 422.927 65.6C421.66 63.2667 421.027 60.7333 421.027 58C421.027 52.9333 422.86 49.1 426.527 46.5C430.26 43.8333 435.227 42.5 441.427 42.5H455.027V41.5C455.027 32.8333 451.06 28.5 443.127 28.5C439.927 28.5 437.227 29.2 435.027 30.6C432.893 32 431.527 34.2 430.927 37.2H422.327C422.66 33.8667 423.76 31 425.627 28.6C427.56 26.2 430.027 24.3667 433.027 23.1C436.027 21.8333 439.393 21.2 443.127 21.2C450.193 21.2 455.327 23.0667 458.527 26.8C461.793 30.4667 463.427 35.3667 463.427 41.5V72H456.227L455.527 64.3H454.827C453.36 66.7 451.393 68.8 448.927 70.6C446.527 72.3333 443.06 73.2 438.527 73.2ZM440.027 65.8C443.227 65.8 445.927 65.0333 448.127 63.5C450.393 61.9667 452.093 59.9333 453.227 57.4C454.427 54.8667 455.027 52.1 455.027 49.1H442.127C437.593 49.1 434.393 49.8667 432.527 51.4C430.727 52.9333 429.827 54.9667 429.827 57.5C429.827 60.1 430.693 62.1333 432.427 63.6C434.16 65.0667 436.693 65.8 440.027 65.8ZM481.088 72V64.8H493.788V32.1C493.788 30.4333 492.988 29.6 491.388 29.6H482.388V22.4H494.488C496.688 22.4 498.454 23 499.788 24.2C501.121 25.4 501.788 27.1667 501.788 29.5V31.6H502.188C502.988 28.2667 504.488 25.7 506.688 23.9C508.954 22.1 512.088 21.2 516.088 21.2H525.188V30.1H514.888C510.821 30.1 507.688 31.4667 505.488 34.2C503.288 36.8667 502.188 40.3 502.188 44.5V64.8H517.788V72H481.088ZM567.848 72C563.315 72 559.748 70.9 557.148 68.7C554.548 66.5 553.248 62.5333 553.248 56.8V29.6H540.648V22.4H548.148C551.548 22.4 553.515 20.7333 554.048 17.4L555.448 9.7H561.648V22.4H581.448V29.6H561.648V56.8C561.648 59.6 562.282 61.5667 563.548 62.7C564.882 63.8333 567.148 64.4 570.348 64.4H581.448V72H567.848Z" fill="white"/>
</svg>
