<?xml version="1.0" encoding="utf-8" ?>
<svg baseProfile="full" height="43" version="1.1" width="43" xmlns="http://www.w3.org/2000/svg" xmlns:ev="http://www.w3.org/2001/xml-events" xmlns:xlink="http://www.w3.org/1999/xlink"><defs /><rect fill="#1b1f26" height="1" width="1" x="35" y="0" /><rect fill="#1b1f26" height="1" width="1" x="36" y="0" /><rect fill="#1b1f26" height="1" width="1" x="37" y="0" /><rect fill="#1b1f26" height="1" width="1" x="38" y="0" /><rect fill="#1b1f26" height="1" width="1" x="33" y="1" /><rect fill="#1b1f26" height="1" width="1" x="34" y="1" /><rect fill="#15181e" height="1" width="1" x="35" y="1" /><rect fill="#15181e" height="1" width="1" x="36" y="1" /><rect fill="#1c1f27" height="1" width="1" x="30" y="2" /><rect fill="#1c1f27" height="1" width="1" x="31" y="2" /><rect fill="#1c1f27" height="1" width="1" x="32" y="2" /><rect fill="#15181e" height="1" width="1" x="33" y="2" /><rect fill="#15181e" height="1" width="1" x="34" y="2" /><rect fill="#1c1f27" height="1" width="1" x="28" y="3" /><rect fill="#1c1f27" height="1" width="1" x="29" y="3" /><rect fill="#16191f" height="1" width="1" x="30" y="3" /><rect fill="#16191f" height="1" width="1" x="31" y="3" /><rect fill="#16191f" height="1" width="1" x="32" y="3" /><rect fill="#1d2028" height="1" width="1" x="26" y="4" /><rect fill="#1d2028" height="1" width="1" x="27" y="4" /><rect fill="#16191f" height="1" width="1" x="28" y="4" /><rect fill="#16191f" height="1" width="1" x="29" y="4" /><rect fill="#1d2028" height="1" width="1" x="23" y="5" /><rect fill="#1d2028" height="1" width="1" x="24" y="5" /><rect fill="#1d2028" height="1" width="1" x="25" y="5" /><rect fill="#16191f" height="1" width="1" x="26" y="5" /><rect fill="#16191f" height="1" width="1" x="27" y="5" /><rect fill="#111318" height="1" width="1" x="28" y="5" /><rect fill="#111318" height="1" width="1" x="29" y="5" /><rect fill="#1d2128" height="1" width="1" x="21" y="6" /><rect fill="#1d2028" height="1" width="1" x="22" y="6" /><rect fill="#1d2028" height="1" width="1" x="23" y="6" /><rect fill="#161a1f" height="1" width="1" x="24" y="6" /><rect fill="#161a1f" height="1" width="1" x="25" y="6" /><rect fill="#121418" height="1" width="1" x="29" y="6" /><rect fill="#111418" height="1" width="1" x="30" y="6" /><rect fill="#1e2129" height="1" width="1" x="18" y="7" /><rect fill="#1e2129" height="1" width="1" x="19" y="7" /><rect fill="#1e2129" height="1" width="1" x="20" y="7" /><rect fill="#1e2129" height="1" width="1" x="21" y="7" /><rect fill="#161a1f" height="1" width="1" x="22" y="7" /><rect fill="#161a1f" height="1" width="1" x="23" y="7" /><rect fill="#121419" height="1" width="1" x="30" y="7" /><rect fill="#1e2129" height="1" width="1" x="16" y="8" /><rect fill="#1e2129" height="1" width="1" x="17" y="8" /><rect fill="#1e2129" height="1" width="1" x="18" y="8" /><rect fill="#161a1f" height="1" width="1" x="19" y="8" /><rect fill="#161a1f" height="1" width="1" x="20" y="8" /><rect fill="#161a1f" height="1" width="1" x="21" y="8" /><rect fill="#121419" height="1" width="1" x="30" y="8" /><rect fill="#121419" height="1" width="1" x="31" y="8" /><rect fill="#1e2129" height="1" width="1" x="14" y="9" /><rect fill="#1e2129" height="1" width="1" x="15" y="9" /><rect fill="#161a1f" height="1" width="1" x="16" y="9" /><rect fill="#161a1f" height="1" width="1" x="17" y="9" /><rect fill="#161a1f" height="1" width="1" x="18" y="9" /><rect fill="#121419" height="1" width="1" x="31" y="9" /><rect fill="#1f222a" height="1" width="1" x="11" y="10" /><rect fill="#1f222a" height="1" width="1" x="12" y="10" /><rect fill="#1e222a" height="1" width="1" x="13" y="10" /><rect fill="#171a20" height="1" width="1" x="14" y="10" /><rect fill="#171a20" height="1" width="1" x="15" y="10" /><rect fill="#121419" height="1" width="1" x="31" y="10" /><rect fill="#121419" height="1" width="1" x="32" y="10" /><rect fill="#1f222a" height="1" width="1" x="9" y="11" /><rect fill="#1f222a" height="1" width="1" x="10" y="11" /><rect fill="#171a20" height="1" width="1" x="11" y="11" /><rect fill="#171a20" height="1" width="1" x="12" y="11" /><rect fill="#171a20" height="1" width="1" x="13" y="11" /><rect fill="#121419" height="1" width="1" x="32" y="11" /><rect fill="#1f222a" height="1" width="1" x="6" y="12" /><rect fill="#1f222a" height="1" width="1" x="7" y="12" /><rect fill="#1f222a" height="1" width="1" x="8" y="12" /><rect fill="#171a20" height="1" width="1" x="9" y="12" /><rect fill="#171a20" height="1" width="1" x="10" y="12" /><rect fill="#121419" height="1" width="1" x="32" y="12" /><rect fill="#121419" height="1" width="1" x="33" y="12" /><rect fill="#1f222a" height="1" width="1" x="4" y="13" /><rect fill="#1f222a" height="1" width="1" x="5" y="13" /><rect fill="#1f222a" height="1" width="1" x="6" y="13" /><rect fill="#171a20" height="1" width="1" x="7" y="13" /><rect fill="#171a20" height="1" width="1" x="8" y="13" /><rect fill="#121419" height="1" width="1" x="33" y="13" /><rect fill="#404957" height="1" width="1" x="2" y="14" /><rect fill="#404957" height="1" width="1" x="3" y="14" /><rect fill="#404957" height="1" width="1" x="4" y="14" /><rect fill="#333a47" height="1" width="1" x="5" y="14" /><rect fill="#404957" height="1" width="1" x="6" y="14" /><rect fill="#333a47" height="1" width="1" x="7" y="14" /><rect fill="#272c36" height="1" width="1" x="8" y="14" /><rect fill="#333a47" height="1" width="1" x="9" y="14" /><rect fill="#272c36" height="1" width="1" x="10" y="14" /><rect fill="#272c36" height="1" width="1" x="11" y="14" /><rect fill="#272c36" height="1" width="1" x="12" y="14" /><rect fill="#272c36" height="1" width="1" x="13" y="14" /><rect fill="#272c36" height="1" width="1" x="14" y="14" /><rect fill="#272c36" height="1" width="1" x="15" y="14" /><rect fill="#272c36" height="1" width="1" x="16" y="14" /><rect fill="#272c36" height="1" width="1" x="17" y="14" /><rect fill="#272c36" height="1" width="1" x="18" y="14" /><rect fill="#272c36" height="1" width="1" x="19" y="14" /><rect fill="#272c36" height="1" width="1" x="20" y="14" /><rect fill="#272c36" height="1" width="1" x="21" y="14" /><rect fill="#262c36" height="1" width="1" x="22" y="14" /><rect fill="#262c36" height="1" width="1" x="23" y="14" /><rect fill="#262c36" height="1" width="1" x="24" y="14" /><rect fill="#262c36" height="1" width="1" x="25" y="14" /><rect fill="#262c36" height="1" width="1" x="26" y="14" /><rect fill="#262b36" height="1" width="1" x="27" y="14" /><rect fill="#262b35" height="1" width="1" x="28" y="14" /><rect fill="#262b35" height="1" width="1" x="29" y="14" /><rect fill="#262b35" height="1" width="1" x="30" y="14" /><rect fill="#262b35" height="1" width="1" x="31" y="14" /><rect fill="#262b35" height="1" width="1" x="32" y="14" /><rect fill="#323a46" height="1" width="1" x="33" y="14" /><rect fill="#262b35" height="1" width="1" x="34" y="14" /><rect fill="#323a46" height="1" width="1" x="35" y="14" /><rect fill="#3f4856" height="1" width="1" x="36" y="14" /><rect fill="#323a46" height="1" width="1" x="37" y="14" /><rect fill="#3e4856" height="1" width="1" x="38" y="14" /><rect fill="#3e4856" height="1" width="1" x="39" y="14" /><rect fill="#3e4856" height="1" width="1" x="40" y="14" /><rect fill="#1f222a" height="1" width="1" x="3" y="15" /><rect fill="#171a20" height="1" width="1" x="4" y="15" /><rect fill="#12151a" height="1" width="1" x="5" y="15" /><rect fill="#12151a" height="1" width="1" x="6" y="15" /><rect fill="#12151a" height="1" width="1" x="7" y="15" /><rect fill="#12151a" height="1" width="1" x="8" y="15" /><rect fill="#12151a" height="1" width="1" x="9" y="15" /><rect fill="#12151a" height="1" width="1" x="10" y="15" /><rect fill="#12151a" height="1" width="1" x="11" y="15" /><rect fill="#12151a" height="1" width="1" x="12" y="15" /><rect fill="#12151a" height="1" width="1" x="13" y="15" /><rect fill="#12151a" height="1" width="1" x="14" y="15" /><rect fill="#12151a" height="1" width="1" x="15" y="15" /><rect fill="#12151a" height="1" width="1" x="16" y="15" /><rect fill="#12151a" height="1" width="1" x="17" y="15" /><rect fill="#12151a" height="1" width="1" x="18" y="15" /><rect fill="#12151a" height="1" width="1" x="19" y="15" /><rect fill="#12151a" height="1" width="1" x="20" y="15" /><rect fill="#12151a" height="1" width="1" x="21" y="15" /><rect fill="#12151a" height="1" width="1" x="22" y="15" /><rect fill="#12151a" height="1" width="1" x="23" y="15" /><rect fill="#12151a" height="1" width="1" x="24" y="15" /><rect fill="#12151a" height="1" width="1" x="25" y="15" /><rect fill="#12151a" height="1" width="1" x="26" y="15" /><rect fill="#12151a" height="1" width="1" x="27" y="15" /><rect fill="#121519" height="1" width="1" x="28" y="15" /><rect fill="#121519" height="1" width="1" x="29" y="15" /><rect fill="#121519" height="1" width="1" x="30" y="15" /><rect fill="#121419" height="1" width="1" x="31" y="15" /><rect fill="#121419" height="1" width="1" x="32" y="15" /><rect fill="#121419" height="1" width="1" x="33" y="15" /><rect fill="#121419" height="1" width="1" x="34" y="15" /><rect fill="#121419" height="1" width="1" x="35" y="15" /><rect fill="#121419" height="1" width="1" x="36" y="15" /><rect fill="#121419" height="1" width="1" x="37" y="15" /><rect fill="#171a20" height="1" width="1" x="38" y="15" /><rect fill="#1f222a" height="1" width="1" x="39" y="15" /><rect fill="#1f222a" height="1" width="1" x="3" y="16" /><rect fill="#171a20" height="1" width="1" x="4" y="16" /><rect fill="#1b1f26" height="1" width="1" x="5" y="16" /><rect fill="#1b1f26" height="1" width="1" x="6" y="16" /><rect fill="#1b1f26" height="1" width="1" x="7" y="16" /><rect fill="#1b1f26" height="1" width="1" x="8" y="16" /><rect fill="#1b1f26" height="1" width="1" x="9" y="16" /><rect fill="#1b1f26" height="1" width="1" x="10" y="16" /><rect fill="#1b1f26" height="1" width="1" x="11" y="16" /><rect fill="#1b1f26" height="1" width="1" x="12" y="16" /><rect fill="#1b1f26" height="1" width="1" x="13" y="16" /><rect fill="#1b1f26" height="1" width="1" x="14" y="16" /><rect fill="#1b1f26" height="1" width="1" x="15" y="16" /><rect fill="#1b1f26" height="1" width="1" x="16" y="16" /><rect fill="#1b1f26" height="1" width="1" x="17" y="16" /><rect fill="#1b1f26" height="1" width="1" x="18" y="16" /><rect fill="#1b1f26" height="1" width="1" x="19" y="16" /><rect fill="#1b1f26" height="1" width="1" x="20" y="16" /><rect fill="#1b1f26" height="1" width="1" x="21" y="16" /><rect fill="#1b1f26" height="1" width="1" x="22" y="16" /><rect fill="#1b1f26" height="1" width="1" x="23" y="16" /><rect fill="#1b1f26" height="1" width="1" x="24" y="16" /><rect fill="#1b1f26" height="1" width="1" x="25" y="16" /><rect fill="#1b1f26" height="1" width="1" x="26" y="16" /><rect fill="#1b1f26" height="1" width="1" x="27" y="16" /><rect fill="#1b1f26" height="1" width="1" x="28" y="16" /><rect fill="#1b1f26" height="1" width="1" x="29" y="16" /><rect fill="#1b1f26" height="1" width="1" x="30" y="16" /><rect fill="#1b1f26" height="1" width="1" x="31" y="16" /><rect fill="#1b1f26" height="1" width="1" x="32" y="16" /><rect fill="#1b1f26" height="1" width="1" x="33" y="16" /><rect fill="#1b1f26" height="1" width="1" x="34" y="16" /><rect fill="#1b1f26" height="1" width="1" x="35" y="16" /><rect fill="#1b1f26" height="1" width="1" x="36" y="16" /><rect fill="#1b1f26" height="1" width="1" x="37" y="16" /><rect fill="#171a20" height="1" width="1" x="38" y="16" /><rect fill="#1f222a" height="1" width="1" x="39" y="16" /><rect fill="#1f222a" height="1" width="1" x="3" y="17" /><rect fill="#171a20" height="1" width="1" x="4" y="17" /><rect fill="#1f222a" height="1" width="1" x="5" y="17" /><rect fill="#1f222a" height="1" width="1" x="6" y="17" /><rect fill="#1f222a" height="1" width="1" x="7" y="17" /><rect fill="#1f222a" height="1" width="1" x="8" y="17" /><rect fill="#1f222a" height="1" width="1" x="9" y="17" /><rect fill="#1f222a" height="1" width="1" x="10" y="17" /><rect fill="#1f222a" height="1" width="1" x="11" y="17" /><rect fill="#1f222a" height="1" width="1" x="12" y="17" /><rect fill="#1f222a" height="1" width="1" x="13" y="17" /><rect fill="#1f222a" height="1" width="1" x="14" y="17" /><rect fill="#1f222a" height="1" width="1" x="15" y="17" /><rect fill="#1f222a" height="1" width="1" x="16" y="17" /><rect fill="#1f222a" height="1" width="1" x="17" y="17" /><rect fill="#1f222a" height="1" width="1" x="18" y="17" /><rect fill="#1f222a" height="1" width="1" x="19" y="17" /><rect fill="#1f222a" height="1" width="1" x="20" y="17" /><rect fill="#1f222a" height="1" width="1" x="21" y="17" /><rect fill="#1f222a" height="1" width="1" x="22" y="17" /><rect fill="#1f222a" height="1" width="1" x="23" y="17" /><rect fill="#1f222a" height="1" width="1" x="24" y="17" /><rect fill="#1f222a" height="1" width="1" x="25" y="17" /><rect fill="#1f222a" height="1" width="1" x="26" y="17" /><rect fill="#1f222a" height="1" width="1" x="27" y="17" /><rect fill="#1f222a" height="1" width="1" x="28" y="17" /><rect fill="#1f222a" height="1" width="1" x="29" y="17" /><rect fill="#1f222a" height="1" width="1" x="30" y="17" /><rect fill="#1f222a" height="1" width="1" x="31" y="17" /><rect fill="#1f222a" height="1" width="1" x="32" y="17" /><rect fill="#1f222a" height="1" width="1" x="33" y="17" /><rect fill="#1f222a" height="1" width="1" x="34" y="17" /><rect fill="#1f222a" height="1" width="1" x="35" y="17" /><rect fill="#1f222a" height="1" width="1" x="36" y="17" /><rect fill="#1f222a" height="1" width="1" x="37" y="17" /><rect fill="#171a20" height="1" width="1" x="38" y="17" /><rect fill="#1f222a" height="1" width="1" x="39" y="17" /><rect fill="#1f222a" height="1" width="1" x="3" y="18" /><rect fill="#171a20" height="1" width="1" x="4" y="18" /><rect fill="#1f222a" height="1" width="1" x="5" y="18" /><rect fill="#1f222a" height="1" width="1" x="6" y="18" /><rect fill="#1f222a" height="1" width="1" x="7" y="18" /><rect fill="#1f222a" height="1" width="1" x="8" y="18" /><rect fill="#1f222a" height="1" width="1" x="9" y="18" /><rect fill="#1f222a" height="1" width="1" x="10" y="18" /><rect fill="#1f222a" height="1" width="1" x="11" y="18" /><rect fill="#1f222a" height="1" width="1" x="12" y="18" /><rect fill="#1f222a" height="1" width="1" x="13" y="18" /><rect fill="#1f222a" height="1" width="1" x="14" y="18" /><rect fill="#1f222a" height="1" width="1" x="15" y="18" /><rect fill="#1f222a" height="1" width="1" x="16" y="18" /><rect fill="#1f222a" height="1" width="1" x="17" y="18" /><rect fill="#1f222a" height="1" width="1" x="18" y="18" /><rect fill="#1f222a" height="1" width="1" x="19" y="18" /><rect fill="#1f222a" height="1" width="1" x="20" y="18" /><rect fill="#1f222a" height="1" width="1" x="21" y="18" /><rect fill="#1f222a" height="1" width="1" x="22" y="18" /><rect fill="#1f222a" height="1" width="1" x="23" y="18" /><rect fill="#1f222a" height="1" width="1" x="24" y="18" /><rect fill="#1f222a" height="1" width="1" x="25" y="18" /><rect fill="#1f222a" height="1" width="1" x="26" y="18" /><rect fill="#1f222a" height="1" width="1" x="27" y="18" /><rect fill="#1f222a" height="1" width="1" x="28" y="18" /><rect fill="#1f222a" height="1" width="1" x="29" y="18" /><rect fill="#1f222a" height="1" width="1" x="30" y="18" /><rect fill="#1f222a" height="1" width="1" x="31" y="18" /><rect fill="#1f222a" height="1" width="1" x="32" y="18" /><rect fill="#1f222a" height="1" width="1" x="33" y="18" /><rect fill="#1f222a" height="1" width="1" x="34" y="18" /><rect fill="#1f222a" height="1" width="1" x="35" y="18" /><rect fill="#1f222a" height="1" width="1" x="36" y="18" /><rect fill="#1f222a" height="1" width="1" x="37" y="18" /><rect fill="#171a20" height="1" width="1" x="38" y="18" /><rect fill="#1f222a" height="1" width="1" x="39" y="18" /><rect fill="#1f222a" height="1" width="1" x="3" y="19" /><rect fill="#171a20" height="1" width="1" x="4" y="19" /><rect fill="#454f5e" height="1" width="1" x="5" y="19" /><rect fill="#454f5e" height="1" width="1" x="6" y="19" /><rect fill="#454f5e" height="1" width="1" x="7" y="19" /><rect fill="#393f4d" height="1" width="1" x="8" y="19" /><rect fill="#454f5e" height="1" width="1" x="9" y="19" /><rect fill="#393f4d" height="1" width="1" x="10" y="19" /><rect fill="#393f4d" height="1" width="1" x="11" y="19" /><rect fill="#2c313b" height="1" width="1" x="12" y="19" /><rect fill="#393f4d" height="1" width="1" x="13" y="19" /><rect fill="#2c313b" height="1" width="1" x="14" y="19" /><rect fill="#2c313b" height="1" width="1" x="15" y="19" /><rect fill="#2c313b" height="1" width="1" x="16" y="19" /><rect fill="#2c313b" height="1" width="1" x="17" y="19" /><rect fill="#2c313b" height="1" width="1" x="18" y="19" /><rect fill="#2c313b" height="1" width="1" x="19" y="19" /><rect fill="#2c313b" height="1" width="1" x="20" y="19" /><rect fill="#2c313b" height="1" width="1" x="21" y="19" /><rect fill="#2c313b" height="1" width="1" x="22" y="19" /><rect fill="#2c313b" height="1" width="1" x="23" y="19" /><rect fill="#2c313b" height="1" width="1" x="24" y="19" /><rect fill="#2c313b" height="1" width="1" x="25" y="19" /><rect fill="#2c313b" height="1" width="1" x="26" y="19" /><rect fill="#2c313b" height="1" width="1" x="27" y="19" /><rect fill="#2c313b" height="1" width="1" x="28" y="19" /><rect fill="#383f4d" height="1" width="1" x="29" y="19" /><rect fill="#2c313b" height="1" width="1" x="30" y="19" /><rect fill="#383f4d" height="1" width="1" x="31" y="19" /><rect fill="#383e4d" height="1" width="1" x="32" y="19" /><rect fill="#454e5e" height="1" width="1" x="33" y="19" /><rect fill="#383e4d" height="1" width="1" x="34" y="19" /><rect fill="#444e5d" height="1" width="1" x="35" y="19" /><rect fill="#444e5d" height="1" width="1" x="36" y="19" /><rect fill="#444e5d" height="1" width="1" x="37" y="19" /><rect fill="#171a20" height="1" width="1" x="38" y="19" /><rect fill="#1f222a" height="1" width="1" x="39" y="19" /><rect fill="#1f222a" height="1" width="1" x="3" y="20" /><rect fill="#171a20" height="1" width="1" x="4" y="20" /><rect fill="#272c36" height="1" width="1" x="5" y="20" /><rect fill="#272c36" height="1" width="1" x="6" y="20" /><rect fill="#272c36" height="1" width="1" x="7" y="20" /><rect fill="#272c36" height="1" width="1" x="8" y="20" /><rect fill="#272c36" height="1" width="1" x="9" y="20" /><rect fill="#272c36" height="1" width="1" x="10" y="20" /><rect fill="#272c36" height="1" width="1" x="11" y="20" /><rect fill="#272c36" height="1" width="1" x="12" y="20" /><rect fill="#272c36" height="1" width="1" x="13" y="20" /><rect fill="#272c36" height="1" width="1" x="14" y="20" /><rect fill="#272c36" height="1" width="1" x="15" y="20" /><rect fill="#272c36" height="1" width="1" x="16" y="20" /><rect fill="#272c36" height="1" width="1" x="17" y="20" /><rect fill="#272c36" height="1" width="1" x="18" y="20" /><rect fill="#272c36" height="1" width="1" x="19" y="20" /><rect fill="#272c36" height="1" width="1" x="20" y="20" /><rect fill="#272c36" height="1" width="1" x="21" y="20" /><rect fill="#272c36" height="1" width="1" x="22" y="20" /><rect fill="#272c36" height="1" width="1" x="23" y="20" /><rect fill="#272c36" height="1" width="1" x="24" y="20" /><rect fill="#272c36" height="1" width="1" x="25" y="20" /><rect fill="#272c36" height="1" width="1" x="26" y="20" /><rect fill="#272c36" height="1" width="1" x="27" y="20" /><rect fill="#272c36" height="1" width="1" x="28" y="20" /><rect fill="#272c36" height="1" width="1" x="29" y="20" /><rect fill="#272c36" height="1" width="1" x="30" y="20" /><rect fill="#272c36" height="1" width="1" x="31" y="20" /><rect fill="#272c36" height="1" width="1" x="32" y="20" /><rect fill="#272c36" height="1" width="1" x="33" y="20" /><rect fill="#272c36" height="1" width="1" x="34" y="20" /><rect fill="#272c36" height="1" width="1" x="35" y="20" /><rect fill="#272c36" height="1" width="1" x="36" y="20" /><rect fill="#272c36" height="1" width="1" x="37" y="20" /><rect fill="#171a20" height="1" width="1" x="38" y="20" /><rect fill="#1f222a" height="1" width="1" x="39" y="20" /><rect fill="#2c313b" height="1" width="1" x="3" y="21" /><rect fill="#2c313b" height="1" width="1" x="4" y="21" /><rect fill="#272c36" height="1" width="1" x="5" y="21" /><rect fill="#171a20" height="1" width="1" x="6" y="21" /><rect fill="#272c36" height="1" width="1" x="7" y="21" /><rect fill="#171a20" height="1" width="1" x="8" y="21" /><rect fill="#272c36" height="1" width="1" x="9" y="21" /><rect fill="#171a20" height="1" width="1" x="10" y="21" /><rect fill="#272c36" height="1" width="1" x="11" y="21" /><rect fill="#272c36" height="1" width="1" x="12" y="21" /><rect fill="#171a20" height="1" width="1" x="13" y="21" /><rect fill="#272c36" height="1" width="1" x="14" y="21" /><rect fill="#171a20" height="1" width="1" x="15" y="21" /><rect fill="#272c36" height="1" width="1" x="16" y="21" /><rect fill="#272c36" height="1" width="1" x="17" y="21" /><rect fill="#171a20" height="1" width="1" x="18" y="21" /><rect fill="#272c36" height="1" width="1" x="19" y="21" /><rect fill="#171a20" height="1" width="1" x="20" y="21" /><rect fill="#272c36" height="1" width="1" x="21" y="21" /><rect fill="#171a20" height="1" width="1" x="22" y="21" /><rect fill="#272c36" height="1" width="1" x="23" y="21" /><rect fill="#272c36" height="1" width="1" x="24" y="21" /><rect fill="#171a20" height="1" width="1" x="25" y="21" /><rect fill="#272c36" height="1" width="1" x="26" y="21" /><rect fill="#171a20" height="1" width="1" x="27" y="21" /><rect fill="#272c36" height="1" width="1" x="28" y="21" /><rect fill="#272c36" height="1" width="1" x="29" y="21" /><rect fill="#171a20" height="1" width="1" x="30" y="21" /><rect fill="#272c36" height="1" width="1" x="31" y="21" /><rect fill="#171a20" height="1" width="1" x="32" y="21" /><rect fill="#272c36" height="1" width="1" x="33" y="21" /><rect fill="#171a20" height="1" width="1" x="34" y="21" /><rect fill="#272c36" height="1" width="1" x="35" y="21" /><rect fill="#272c36" height="1" width="1" x="36" y="21" /><rect fill="#171a20" height="1" width="1" x="37" y="21" /><rect fill="#2b303b" height="1" width="1" x="38" y="21" /><rect fill="#2b303a" height="1" width="1" x="39" y="21" /><rect fill="#1f222a" height="1" width="1" x="3" y="22" /><rect fill="#171a20" height="1" width="1" x="4" y="22" /><rect fill="#9ca6b1" height="1" width="1" x="5" y="22" /><rect fill="#1f222a" height="1" width="1" x="6" y="22" /><rect fill="#9ca6b1" height="1" width="1" x="7" y="22" /><rect fill="#1f222a" height="1" width="1" x="8" y="22" /><rect fill="#9ca6b1" height="1" width="1" x="9" y="22" /><rect fill="#1f222a" height="1" width="1" x="10" y="22" /><rect fill="#9ca6b1" height="1" width="1" x="11" y="22" /><rect fill="#9ba6b1" height="1" width="1" x="12" y="22" /><rect fill="#1f222a" height="1" width="1" x="13" y="22" /><rect fill="#9ba6b1" height="1" width="1" x="14" y="22" /><rect fill="#1f222a" height="1" width="1" x="15" y="22" /><rect fill="#9ca6b1" height="1" width="1" x="16" y="22" /><rect fill="#9ca6b1" height="1" width="1" x="17" y="22" /><rect fill="#1f222a" height="1" width="1" x="18" y="22" /><rect fill="#9ca6b1" height="1" width="1" x="19" y="22" /><rect fill="#1f222a" height="1" width="1" x="20" y="22" /><rect fill="#9ca6b1" height="1" width="1" x="21" y="22" /><rect fill="#1f222a" height="1" width="1" x="22" y="22" /><rect fill="#9ca6b1" height="1" width="1" x="23" y="22" /><rect fill="#9ba6b1" height="1" width="1" x="24" y="22" /><rect fill="#1f222a" height="1" width="1" x="25" y="22" /><rect fill="#9ba6b1" height="1" width="1" x="26" y="22" /><rect fill="#1f222a" height="1" width="1" x="27" y="22" /><rect fill="#9ca6b1" height="1" width="1" x="28" y="22" /><rect fill="#9ca6b1" height="1" width="1" x="29" y="22" /><rect fill="#1f222a" height="1" width="1" x="30" y="22" /><rect fill="#9ca6b1" height="1" width="1" x="31" y="22" /><rect fill="#1f222a" height="1" width="1" x="32" y="22" /><rect fill="#9ca6b1" height="1" width="1" x="33" y="22" /><rect fill="#1f222a" height="1" width="1" x="34" y="22" /><rect fill="#9ca6b1" height="1" width="1" x="35" y="22" /><rect fill="#9ba6b1" height="1" width="1" x="36" y="22" /><rect fill="#1f222a" height="1" width="1" x="37" y="22" /><rect fill="#171a20" height="1" width="1" x="38" y="22" /><rect fill="#1f222a" height="1" width="1" x="39" y="22" /><rect fill="#1f222a" height="1" width="1" x="3" y="23" /><rect fill="#171a20" height="1" width="1" x="4" y="23" /><rect fill="#cddefd" height="1" width="1" x="5" y="23" /><rect fill="#b7c2d1" height="1" width="1" x="6" y="23" /><rect fill="#cddefd" height="1" width="1" x="7" y="23" /><rect fill="#b7c2d1" height="1" width="1" x="8" y="23" /><rect fill="#cddefd" height="1" width="1" x="9" y="23" /><rect fill="#b7c2d1" height="1" width="1" x="10" y="23" /><rect fill="#cddefd" height="1" width="1" x="11" y="23" /><rect fill="#cddefd" height="1" width="1" x="12" y="23" /><rect fill="#b6c2d1" height="1" width="1" x="13" y="23" /><rect fill="#cddefd" height="1" width="1" x="14" y="23" /><rect fill="#b6c2d1" height="1" width="1" x="15" y="23" /><rect fill="#cddefd" height="1" width="1" x="16" y="23" /><rect fill="#cddefd" height="1" width="1" x="17" y="23" /><rect fill="#b7c2d1" height="1" width="1" x="18" y="23" /><rect fill="#cddefd" height="1" width="1" x="19" y="23" /><rect fill="#b7c2d1" height="1" width="1" x="20" y="23" /><rect fill="#cddefd" height="1" width="1" x="21" y="23" /><rect fill="#b7c2d1" height="1" width="1" x="22" y="23" /><rect fill="#cddefd" height="1" width="1" x="23" y="23" /><rect fill="#cddefd" height="1" width="1" x="24" y="23" /><rect fill="#b6c2d1" height="1" width="1" x="25" y="23" /><rect fill="#cddefd" height="1" width="1" x="26" y="23" /><rect fill="#b6c2d1" height="1" width="1" x="27" y="23" /><rect fill="#cddefd" height="1" width="1" x="28" y="23" /><rect fill="#cddefd" height="1" width="1" x="29" y="23" /><rect fill="#b7c2d1" height="1" width="1" x="30" y="23" /><rect fill="#cddefd" height="1" width="1" x="31" y="23" /><rect fill="#b7c2d1" height="1" width="1" x="32" y="23" /><rect fill="#cddefd" height="1" width="1" x="33" y="23" /><rect fill="#b7c2d1" height="1" width="1" x="34" y="23" /><rect fill="#cddefd" height="1" width="1" x="35" y="23" /><rect fill="#cddefd" height="1" width="1" x="36" y="23" /><rect fill="#b6c2d1" height="1" width="1" x="37" y="23" /><rect fill="#171a20" height="1" width="1" x="38" y="23" /><rect fill="#1f222a" height="1" width="1" x="39" y="23" /><rect fill="#1f222a" height="1" width="1" x="3" y="24" /><rect fill="#171a20" height="1" width="1" x="4" y="24" /><rect fill="#12151a" height="1" width="1" x="5" y="24" /><rect fill="#12151a" height="1" width="1" x="6" y="24" /><rect fill="#12151a" height="1" width="1" x="7" y="24" /><rect fill="#12151a" height="1" width="1" x="8" y="24" /><rect fill="#12151a" height="1" width="1" x="9" y="24" /><rect fill="#12151a" height="1" width="1" x="10" y="24" /><rect fill="#12151a" height="1" width="1" x="11" y="24" /><rect fill="#12151a" height="1" width="1" x="12" y="24" /><rect fill="#12151a" height="1" width="1" x="13" y="24" /><rect fill="#12151a" height="1" width="1" x="14" y="24" /><rect fill="#12151a" height="1" width="1" x="15" y="24" /><rect fill="#12151a" height="1" width="1" x="16" y="24" /><rect fill="#12151a" height="1" width="1" x="17" y="24" /><rect fill="#12151a" height="1" width="1" x="18" y="24" /><rect fill="#12151a" height="1" width="1" x="19" y="24" /><rect fill="#12151a" height="1" width="1" x="20" y="24" /><rect fill="#12151a" height="1" width="1" x="21" y="24" /><rect fill="#12151a" height="1" width="1" x="22" y="24" /><rect fill="#12151a" height="1" width="1" x="23" y="24" /><rect fill="#12151a" height="1" width="1" x="24" y="24" /><rect fill="#12151a" height="1" width="1" x="25" y="24" /><rect fill="#12151a" height="1" width="1" x="26" y="24" /><rect fill="#12151a" height="1" width="1" x="27" y="24" /><rect fill="#12151a" height="1" width="1" x="28" y="24" /><rect fill="#12151a" height="1" width="1" x="29" y="24" /><rect fill="#12151a" height="1" width="1" x="30" y="24" /><rect fill="#12151a" height="1" width="1" x="31" y="24" /><rect fill="#12151a" height="1" width="1" x="32" y="24" /><rect fill="#12151a" height="1" width="1" x="33" y="24" /><rect fill="#12151a" height="1" width="1" x="34" y="24" /><rect fill="#12151a" height="1" width="1" x="35" y="24" /><rect fill="#121519" height="1" width="1" x="36" y="24" /><rect fill="#121519" height="1" width="1" x="37" y="24" /><rect fill="#171a20" height="1" width="1" x="38" y="24" /><rect fill="#1f222a" height="1" width="1" x="39" y="24" /><rect fill="#1f222a" height="1" width="1" x="3" y="25" /><rect fill="#171a20" height="1" width="1" x="4" y="25" /><rect fill="#12151a" height="1" width="1" x="5" y="25" /><rect fill="#16181e" height="1" width="1" x="6" y="25" /><rect fill="#16181e" height="1" width="1" x="7" y="25" /><rect fill="#16181e" height="1" width="1" x="8" y="25" /><rect fill="#16181e" height="1" width="1" x="9" y="25" /><rect fill="#16181e" height="1" width="1" x="10" y="25" /><rect fill="#16181e" height="1" width="1" x="11" y="25" /><rect fill="#16181e" height="1" width="1" x="12" y="25" /><rect fill="#16181e" height="1" width="1" x="13" y="25" /><rect fill="#16181e" height="1" width="1" x="14" y="25" /><rect fill="#16181e" height="1" width="1" x="15" y="25" /><rect fill="#16181e" height="1" width="1" x="16" y="25" /><rect fill="#16181e" height="1" width="1" x="17" y="25" /><rect fill="#16181e" height="1" width="1" x="18" y="25" /><rect fill="#16181e" height="1" width="1" x="19" y="25" /><rect fill="#16181e" height="1" width="1" x="20" y="25" /><rect fill="#16181e" height="1" width="1" x="21" y="25" /><rect fill="#16181e" height="1" width="1" x="22" y="25" /><rect fill="#16181e" height="1" width="1" x="23" y="25" /><rect fill="#16181e" height="1" width="1" x="24" y="25" /><rect fill="#16181e" height="1" width="1" x="25" y="25" /><rect fill="#16181e" height="1" width="1" x="26" y="25" /><rect fill="#16181e" height="1" width="1" x="27" y="25" /><rect fill="#16181e" height="1" width="1" x="28" y="25" /><rect fill="#16181e" height="1" width="1" x="29" y="25" /><rect fill="#16181e" height="1" width="1" x="30" y="25" /><rect fill="#16181e" height="1" width="1" x="31" y="25" /><rect fill="#16181e" height="1" width="1" x="32" y="25" /><rect fill="#16181e" height="1" width="1" x="33" y="25" /><rect fill="#16181e" height="1" width="1" x="34" y="25" /><rect fill="#16181e" height="1" width="1" x="35" y="25" /><rect fill="#16181e" height="1" width="1" x="36" y="25" /><rect fill="#121419" height="1" width="1" x="37" y="25" /><rect fill="#171a20" height="1" width="1" x="38" y="25" /><rect fill="#1f222a" height="1" width="1" x="39" y="25" /><rect fill="#1f222a" height="1" width="1" x="3" y="26" /><rect fill="#171a20" height="1" width="1" x="4" y="26" /><rect fill="#12151a" height="1" width="1" x="5" y="26" /><rect fill="#171a20" height="1" width="1" x="6" y="26" /><rect fill="#171a20" height="1" width="1" x="7" y="26" /><rect fill="#171a20" height="1" width="1" x="8" y="26" /><rect fill="#171a20" height="1" width="1" x="9" y="26" /><rect fill="#171a20" height="1" width="1" x="10" y="26" /><rect fill="#171a20" height="1" width="1" x="11" y="26" /><rect fill="#171a20" height="1" width="1" x="12" y="26" /><rect fill="#171a20" height="1" width="1" x="13" y="26" /><rect fill="#171a20" height="1" width="1" x="14" y="26" /><rect fill="#171a20" height="1" width="1" x="15" y="26" /><rect fill="#171a20" height="1" width="1" x="16" y="26" /><rect fill="#171a20" height="1" width="1" x="17" y="26" /><rect fill="#171a20" height="1" width="1" x="18" y="26" /><rect fill="#171a20" height="1" width="1" x="19" y="26" /><rect fill="#171a20" height="1" width="1" x="20" y="26" /><rect fill="#171a20" height="1" width="1" x="21" y="26" /><rect fill="#171a20" height="1" width="1" x="22" y="26" /><rect fill="#171a20" height="1" width="1" x="23" y="26" /><rect fill="#171a20" height="1" width="1" x="24" y="26" /><rect fill="#171a20" height="1" width="1" x="25" y="26" /><rect fill="#171a20" height="1" width="1" x="26" y="26" /><rect fill="#171a20" height="1" width="1" x="27" y="26" /><rect fill="#171a20" height="1" width="1" x="28" y="26" /><rect fill="#171a20" height="1" width="1" x="29" y="26" /><rect fill="#171a20" height="1" width="1" x="30" y="26" /><rect fill="#171a20" height="1" width="1" x="31" y="26" /><rect fill="#171a20" height="1" width="1" x="32" y="26" /><rect fill="#171a20" height="1" width="1" x="33" y="26" /><rect fill="#171a20" height="1" width="1" x="34" y="26" /><rect fill="#171a20" height="1" width="1" x="35" y="26" /><rect fill="#171a20" height="1" width="1" x="36" y="26" /><rect fill="#121419" height="1" width="1" x="37" y="26" /><rect fill="#171a20" height="1" width="1" x="38" y="26" /><rect fill="#1f222a" height="1" width="1" x="39" y="26" /><rect fill="#1f222a" height="1" width="1" x="3" y="27" /><rect fill="#1f222a" height="1" width="1" x="4" y="27" /><rect fill="#1f222a" height="1" width="1" x="5" y="27" /><rect fill="#1f222a" height="1" width="1" x="6" y="27" /><rect fill="#1f222a" height="1" width="1" x="7" y="27" /><rect fill="#1f222a" height="1" width="1" x="8" y="27" /><rect fill="#1f222a" height="1" width="1" x="9" y="27" /><rect fill="#1f222a" height="1" width="1" x="10" y="27" /><rect fill="#1f222a" height="1" width="1" x="11" y="27" /><rect fill="#1f222a" height="1" width="1" x="12" y="27" /><rect fill="#1f222a" height="1" width="1" x="13" y="27" /><rect fill="#1f222a" height="1" width="1" x="14" y="27" /><rect fill="#1f222a" height="1" width="1" x="15" y="27" /><rect fill="#1f222a" height="1" width="1" x="16" y="27" /><rect fill="#1f222a" height="1" width="1" x="17" y="27" /><rect fill="#1f222a" height="1" width="1" x="18" y="27" /><rect fill="#1f222a" height="1" width="1" x="19" y="27" /><rect fill="#1f222a" height="1" width="1" x="20" y="27" /><rect fill="#1f222a" height="1" width="1" x="21" y="27" /><rect fill="#1f222a" height="1" width="1" x="22" y="27" /><rect fill="#1f222a" height="1" width="1" x="23" y="27" /><rect fill="#1f222a" height="1" width="1" x="24" y="27" /><rect fill="#1f222a" height="1" width="1" x="25" y="27" /><rect fill="#1f222a" height="1" width="1" x="26" y="27" /><rect fill="#1f222a" height="1" width="1" x="27" y="27" /><rect fill="#1f222a" height="1" width="1" x="28" y="27" /><rect fill="#1f222a" height="1" width="1" x="29" y="27" /><rect fill="#1f222a" height="1" width="1" x="30" y="27" /><rect fill="#1f222a" height="1" width="1" x="31" y="27" /><rect fill="#1f222a" height="1" width="1" x="32" y="27" /><rect fill="#1f222a" height="1" width="1" x="33" y="27" /><rect fill="#1f222a" height="1" width="1" x="34" y="27" /><rect fill="#1f222a" height="1" width="1" x="35" y="27" /><rect fill="#1f222a" height="1" width="1" x="36" y="27" /><rect fill="#1e222a" height="1" width="1" x="37" y="27" /><rect fill="#1e2229" height="1" width="1" x="38" y="27" /><rect fill="#1e2129" height="1" width="1" x="39" y="27" /><rect fill="#1f222a" height="1" width="1" x="3" y="28" /><rect fill="#1f222a" height="1" width="1" x="4" y="28" /><rect fill="#1f222a" height="1" width="1" x="5" y="28" /><rect fill="#1f222a" height="1" width="1" x="6" y="28" /><rect fill="#1f222a" height="1" width="1" x="7" y="28" /><rect fill="#1f222a" height="1" width="1" x="8" y="28" /><rect fill="#1f222a" height="1" width="1" x="9" y="28" /><rect fill="#1f222a" height="1" width="1" x="10" y="28" /><rect fill="#1f222a" height="1" width="1" x="11" y="28" /><rect fill="#1f222a" height="1" width="1" x="12" y="28" /><rect fill="#1f222a" height="1" width="1" x="13" y="28" /><rect fill="#1f222a" height="1" width="1" x="14" y="28" /><rect fill="#1f222a" height="1" width="1" x="15" y="28" /><rect fill="#1f222a" height="1" width="1" x="16" y="28" /><rect fill="#1f222a" height="1" width="1" x="17" y="28" /><rect fill="#1f222a" height="1" width="1" x="18" y="28" /><rect fill="#1f222a" height="1" width="1" x="19" y="28" /><rect fill="#1f222a" height="1" width="1" x="20" y="28" /><rect fill="#1f222a" height="1" width="1" x="21" y="28" /><rect fill="#1f222a" height="1" width="1" x="22" y="28" /><rect fill="#1f222a" height="1" width="1" x="23" y="28" /><rect fill="#1f222a" height="1" width="1" x="24" y="28" /><rect fill="#1f222a" height="1" width="1" x="25" y="28" /><rect fill="#1f222a" height="1" width="1" x="26" y="28" /><rect fill="#1f222a" height="1" width="1" x="27" y="28" /><rect fill="#1f222a" height="1" width="1" x="28" y="28" /><rect fill="#1f222a" height="1" width="1" x="29" y="28" /><rect fill="#1f222a" height="1" width="1" x="30" y="28" /><rect fill="#1f222a" height="1" width="1" x="31" y="28" /><rect fill="#1f222a" height="1" width="1" x="32" y="28" /><rect fill="#1e222a" height="1" width="1" x="33" y="28" /><rect fill="#1e222a" height="1" width="1" x="34" y="28" /><rect fill="#1e2129" height="1" width="1" x="35" y="28" /><rect fill="#1e2129" height="1" width="1" x="36" y="28" /><rect fill="#1e2129" height="1" width="1" x="37" y="28" /><rect fill="#1e2129" height="1" width="1" x="38" y="28" /><rect fill="#1e2129" height="1" width="1" x="39" y="28" /><rect fill="#171a20" height="1" width="1" x="4" y="29" /><rect fill="#171a20" height="1" width="1" x="5" y="29" /><rect fill="#171a20" height="1" width="1" x="6" y="29" /><rect fill="#171a20" height="1" width="1" x="7" y="29" /><rect fill="#171a20" height="1" width="1" x="8" y="29" /><rect fill="#171a20" height="1" width="1" x="9" y="29" /><rect fill="#171a20" height="1" width="1" x="10" y="29" /><rect fill="#171a20" height="1" width="1" x="11" y="29" /><rect fill="#171a20" height="1" width="1" x="12" y="29" /><rect fill="#171a20" height="1" width="1" x="13" y="29" /><rect fill="#171a20" height="1" width="1" x="14" y="29" /><rect fill="#171a20" height="1" width="1" x="15" y="29" /><rect fill="#171a20" height="1" width="1" x="16" y="29" /><rect fill="#171a20" height="1" width="1" x="17" y="29" /><rect fill="#171a20" height="1" width="1" x="18" y="29" /><rect fill="#171a20" height="1" width="1" x="19" y="29" /><rect fill="#171a20" height="1" width="1" x="20" y="29" /><rect fill="#171a20" height="1" width="1" x="21" y="29" /><rect fill="#171a20" height="1" width="1" x="22" y="29" /><rect fill="#171a20" height="1" width="1" x="23" y="29" /><rect fill="#171a20" height="1" width="1" x="24" y="29" /><rect fill="#171a20" height="1" width="1" x="25" y="29" /><rect fill="#171a20" height="1" width="1" x="26" y="29" /><rect fill="#171a20" height="1" width="1" x="27" y="29" /><rect fill="#171a20" height="1" width="1" x="28" y="29" /><rect fill="#171a20" height="1" width="1" x="29" y="29" /><rect fill="#171a20" height="1" width="1" x="30" y="29" /><rect fill="#171a20" height="1" width="1" x="31" y="29" /><rect fill="#171a20" height="1" width="1" x="32" y="29" /><rect fill="#171a20" height="1" width="1" x="33" y="29" /><rect fill="#161a1f" height="1" width="1" x="34" y="29" /><rect fill="#161a1f" height="1" width="1" x="35" y="29" /><rect fill="#161a1f" height="1" width="1" x="36" y="29" /><rect fill="#161a1f" height="1" width="1" x="37" y="29" /><rect fill="#161a1f" height="1" width="1" x="38" y="29" /><rect fill="#171a20" height="1" width="1" x="4" y="30" /><rect fill="#171a20" height="1" width="1" x="5" y="30" /><rect fill="#171a20" height="1" width="1" x="6" y="30" /><rect fill="#171a20" height="1" width="1" x="7" y="30" /><rect fill="#171a20" height="1" width="1" x="8" y="30" /><rect fill="#121419" height="1" width="1" x="14" y="30" /><rect fill="#121419" height="1" width="1" x="18" y="30" /><rect fill="#121419" height="1" width="1" x="25" y="30" /><rect fill="#121419" height="1" width="1" x="26" y="30" /><rect fill="#121419" height="1" width="1" x="27" y="30" /><rect fill="#121419" height="1" width="1" x="28" y="30" /><rect fill="#161a1f" height="1" width="1" x="34" y="30" /><rect fill="#161a1f" height="1" width="1" x="35" y="30" /><rect fill="#161a1f" height="1" width="1" x="36" y="30" /><rect fill="#161a1f" height="1" width="1" x="37" y="30" /><rect fill="#161a1f" height="1" width="1" x="38" y="30" /><rect fill="#1e2129" height="1" width="1" x="4" y="31" /><rect fill="#1e2129" height="1" width="1" x="5" y="31" /><rect fill="#161a1f" height="1" width="1" x="6" y="31" /><rect fill="#161a1f" height="1" width="1" x="7" y="31" /><rect fill="#121419" height="1" width="1" x="14" y="31" /><rect fill="#121419" height="1" width="1" x="18" y="31" /><rect fill="#121419" height="1" width="1" x="25" y="31" /><rect fill="#121419" height="1" width="1" x="26" y="31" /><rect fill="#121419" height="1" width="1" x="27" y="31" /><rect fill="#121419" height="1" width="1" x="28" y="31" /><rect fill="#161a1f" height="1" width="1" x="35" y="31" /><rect fill="#161a1f" height="1" width="1" x="36" y="31" /><rect fill="#1e2129" height="1" width="1" x="37" y="31" /><rect fill="#1e2129" height="1" width="1" x="38" y="31" /><rect fill="#1e2129" height="1" width="1" x="4" y="32" /><rect fill="#161a1f" height="1" width="1" x="5" y="32" /><rect fill="#161a1f" height="1" width="1" x="6" y="32" /><rect fill="#161a1f" height="1" width="1" x="7" y="32" /><rect fill="#161a1f" height="1" width="1" x="14" y="32" /><rect fill="#161a1f" height="1" width="1" x="18" y="32" /><rect fill="#121419" height="1" width="1" x="25" y="32" /><rect fill="#121419" height="1" width="1" x="26" y="32" /><rect fill="#121419" height="1" width="1" x="27" y="32" /><rect fill="#121419" height="1" width="1" x="28" y="32" /><rect fill="#161a1f" height="1" width="1" x="35" y="32" /><rect fill="#161a1f" height="1" width="1" x="36" y="32" /><rect fill="#161a1f" height="1" width="1" x="37" y="32" /><rect fill="#1e2129" height="1" width="1" x="38" y="32" /><rect fill="#161a1f" height="1" width="1" x="4" y="33" /><rect fill="#161a1f" height="1" width="1" x="5" y="33" /><rect fill="#161a1f" height="1" width="1" x="6" y="33" /><rect fill="#161a1f" height="1" width="1" x="7" y="33" /><rect fill="#121419" height="1" width="1" x="14" y="33" /><rect fill="#121419" height="1" width="1" x="18" y="33" /><rect fill="#121419" height="1" width="1" x="25" y="33" /><rect fill="#121419" height="1" width="1" x="26" y="33" /><rect fill="#121419" height="1" width="1" x="27" y="33" /><rect fill="#121419" height="1" width="1" x="28" y="33" /><rect fill="#161a1f" height="1" width="1" x="35" y="33" /><rect fill="#161a1f" height="1" width="1" x="36" y="33" /><rect fill="#161a1f" height="1" width="1" x="37" y="33" /><rect fill="#161a1f" height="1" width="1" x="38" y="33" /><rect fill="#161a1f" height="1" width="1" x="5" y="34" /><rect fill="#161a1f" height="1" width="1" x="6" y="34" /><rect fill="#161a1f" height="1" width="1" x="7" y="34" /><rect fill="#161a1f" height="1" width="1" x="14" y="34" /><rect fill="#161a1f" height="1" width="1" x="18" y="34" /><rect fill="#121419" height="1" width="1" x="25" y="34" /><rect fill="#121419" height="1" width="1" x="26" y="34" /><rect fill="#121419" height="1" width="1" x="27" y="34" /><rect fill="#161a1f" height="1" width="1" x="35" y="34" /><rect fill="#161a1f" height="1" width="1" x="36" y="34" /><rect fill="#161a1f" height="1" width="1" x="37" y="34" /><rect fill="#161a1f" height="1" width="1" x="5" y="35" /><rect fill="#161a1f" height="1" width="1" x="6" y="35" /><rect fill="#161a1f" height="1" width="1" x="13" y="35" /><rect fill="#161a1f" height="1" width="1" x="14" y="35" /><rect fill="#161a1f" height="1" width="1" x="15" y="35" /><rect fill="#161a1f" height="1" width="1" x="16" y="35" /><rect fill="#161a1f" height="1" width="1" x="17" y="35" /><rect fill="#161a1f" height="1" width="1" x="18" y="35" /><rect fill="#161a1f" height="1" width="1" x="19" y="35" /><rect fill="#121419" height="1" width="1" x="26" y="35" /><rect fill="#121419" height="1" width="1" x="27" y="35" /><rect fill="#161a1f" height="1" width="1" x="36" y="35" /><rect fill="#161a1f" height="1" width="1" x="37" y="35" /><rect fill="#161a1f" height="1" width="1" x="5" y="36" /><rect fill="#161a1f" height="1" width="1" x="6" y="36" /><rect fill="#121419" height="1" width="1" x="13" y="36" /><rect fill="#aaaea1" height="1" width="1" x="14" y="36" /><rect fill="#121419" height="1" width="1" x="15" y="36" /><rect fill="#aaaea1" height="1" width="1" x="16" y="36" /><rect fill="#121419" height="1" width="1" x="17" y="36" /><rect fill="#aaaea1" height="1" width="1" x="18" y="36" /><rect fill="#121419" height="1" width="1" x="19" y="36" /><rect fill="#121419" height="1" width="1" x="26" y="36" /><rect fill="#121419" height="1" width="1" x="27" y="36" /><rect fill="#16191f" height="1" width="1" x="36" y="36" /><rect fill="#16191f" height="1" width="1" x="37" y="36" /><rect fill="#161a1f" height="1" width="1" x="5" y="37" /><rect fill="#161a1f" height="1" width="1" x="6" y="37" /><rect fill="#79826e" height="1" width="1" x="14" y="37" /><rect fill="#79816e" height="1" width="1" x="16" y="37" /><rect fill="#79816e" height="1" width="1" x="18" y="37" /><rect fill="#111318" height="1" width="1" x="26" y="37" /><rect fill="#111318" height="1" width="1" x="27" y="37" /><rect fill="#16191f" height="1" width="1" x="36" y="37" /><rect fill="#16191f" height="1" width="1" x="37" y="37" /><rect fill="#16191f" height="1" width="1" x="5" y="38" /><rect fill="#16191f" height="1" width="1" x="6" y="38" /><rect fill="#111318" height="1" width="1" x="26" y="38" /><rect fill="#111318" height="1" width="1" x="27" y="38" /><rect fill="#16191f" height="1" width="1" x="36" y="38" /><rect fill="#16191f" height="1" width="1" x="37" y="38" /><rect fill="#16191f" height="1" width="1" x="5" y="39" /><rect fill="#16191f" height="1" width="1" x="6" y="39" /><rect fill="#111318" height="1" width="1" x="26" y="39" /><rect fill="#111318" height="1" width="1" x="27" y="39" /><rect fill="#16191f" height="1" width="1" x="36" y="39" /><rect fill="#16191f" height="1" width="1" x="37" y="39" /></svg>